<svg id="visual" viewBox="0 0 960 540" width="960" height="540" xmlns="http://www.w3.org/2000/svg" xmlns:xlink="http://www.w3.org/1999/xlink" version="1.1"><g stroke-width="1" stroke-linejoin="bevel"><path d="M418.7 267L437.7 330L537.3 233Z" fill="#081a28" stroke="#081a28"></path><path d="M537.3 233L523.3 180L418.7 267Z" fill="#246688" stroke="#246688"></path><path d="M523.3 180L404.7 177L418.7 267Z" fill="#081a28" stroke="#081a28"></path><path d="M437.7 330L562.3 395L537.3 233Z" fill="#1d4e6b" stroke="#1d4e6b"></path><path d="M339 436L442.7 429L437.7 330Z" fill="#15384f" stroke="#15384f"></path><path d="M437.7 330L442.7 429L562.3 395Z" fill="#246688" stroke="#246688"></path><path d="M312 376L437.7 330L418.7 267Z" fill="#112e42" stroke="#112e42"></path><path d="M404.7 177L333 205L418.7 267Z" fill="#297ea6" stroke="#297ea6"></path><path d="M562.3 395L674 274L537.3 233Z" fill="#205a7a" stroke="#205a7a"></path><path d="M673 160L602 109L523.3 180Z" fill="#297ea6" stroke="#297ea6"></path><path d="M284 285L312 376L418.7 267Z" fill="#297ea6" stroke="#297ea6"></path><path d="M508.3 540L543.3 472L442.7 429Z" fill="#205a7a" stroke="#205a7a"></path><path d="M442.7 429L543.3 472L562.3 395Z" fill="#15384f" stroke="#15384f"></path><path d="M562.3 395L678 361L674 274Z" fill="#1d4e6b" stroke="#1d4e6b"></path><path d="M333 205L284 285L418.7 267Z" fill="#112e42" stroke="#112e42"></path><path d="M673 160L523.3 180L537.3 233Z" fill="#0c2435" stroke="#0c2435"></path><path d="M523.3 180L500.3 51L404.7 177Z" fill="#15384f" stroke="#15384f"></path><path d="M668 452L678 361L562.3 395Z" fill="#00101c" stroke="#00101c"></path><path d="M312 376L339 436L437.7 330Z" fill="#246688" stroke="#246688"></path><path d="M393.7 51L332 122L404.7 177Z" fill="#081a28" stroke="#081a28"></path><path d="M404.7 177L332 122L333 205Z" fill="#00101c" stroke="#00101c"></path><path d="M333 205L236.3 280L284 285Z" fill="#1d4e6b" stroke="#1d4e6b"></path><path d="M674 274L673 160L537.3 233Z" fill="#0c2435" stroke="#0c2435"></path><path d="M727.7 261L673 160L674 274Z" fill="#00101c" stroke="#00101c"></path><path d="M602 109L500.3 51L523.3 180Z" fill="#246688" stroke="#246688"></path><path d="M678 361L727.7 261L674 274Z" fill="#246688" stroke="#246688"></path><path d="M500.3 51L393.7 51L404.7 177Z" fill="#277297" stroke="#277297"></path><path d="M543.3 472L668 452L562.3 395Z" fill="#297ea6" stroke="#297ea6"></path><path d="M678 361L751.7 398L727.7 261Z" fill="#00101c" stroke="#00101c"></path><path d="M209.3 152L236.3 280L333 205Z" fill="#112e42" stroke="#112e42"></path><path d="M284 285L227.3 365L312 376Z" fill="#246688" stroke="#246688"></path><path d="M312 376L231.3 451L339 436Z" fill="#297ea6" stroke="#297ea6"></path><path d="M436.7 540L508.3 540L442.7 429Z" fill="#205a7a" stroke="#205a7a"></path><path d="M543.3 472L607 540L668 452Z" fill="#205a7a" stroke="#205a7a"></path><path d="M339 436L436.7 540L442.7 429Z" fill="#112e42" stroke="#112e42"></path><path d="M236.3 280L227.3 365L284 285Z" fill="#00101c" stroke="#00101c"></path><path d="M339 436L294 540L436.7 540Z" fill="#00101c" stroke="#00101c"></path><path d="M602 109L515.3 0L500.3 51Z" fill="#277297" stroke="#277297"></path><path d="M500.3 51L404.7 0L393.7 51Z" fill="#205a7a" stroke="#205a7a"></path><path d="M644 0L515.3 0L602 109Z" fill="#081a28" stroke="#081a28"></path><path d="M508.3 540L607 540L543.3 472Z" fill="#297ea6" stroke="#297ea6"></path><path d="M736.7 439L678 361L668 452Z" fill="#19435d" stroke="#19435d"></path><path d="M736.7 439L751.7 398L678 361Z" fill="#297ea6" stroke="#297ea6"></path><path d="M393.7 51L293 0L332 122Z" fill="#297ea6" stroke="#297ea6"></path><path d="M332 122L209.3 152L333 205Z" fill="#19435d" stroke="#19435d"></path><path d="M515.3 0L404.7 0L500.3 51Z" fill="#19435d" stroke="#19435d"></path><path d="M712.7 540L736.7 439L668 452Z" fill="#277297" stroke="#277297"></path><path d="M727.7 261L760.7 145L673 160Z" fill="#081a28" stroke="#081a28"></path><path d="M673 160L644 0L602 109Z" fill="#19435d" stroke="#19435d"></path><path d="M891.3 268L760.7 145L727.7 261Z" fill="#15384f" stroke="#15384f"></path><path d="M197.3 85L209.3 152L332 122Z" fill="#205a7a" stroke="#205a7a"></path><path d="M82.7 349L134.7 445L227.3 365Z" fill="#1d4e6b" stroke="#1d4e6b"></path><path d="M134.7 445L231.3 451L227.3 365Z" fill="#1d4e6b" stroke="#1d4e6b"></path><path d="M227.3 365L231.3 451L312 376Z" fill="#19435d" stroke="#19435d"></path><path d="M767.7 65L644 0L673 160Z" fill="#205a7a" stroke="#205a7a"></path><path d="M231.3 451L294 540L339 436Z" fill="#205a7a" stroke="#205a7a"></path><path d="M404.7 0L293 0L393.7 51Z" fill="#0c2435" stroke="#0c2435"></path><path d="M872.3 423L869.3 375L751.7 398Z" fill="#0c2435" stroke="#0c2435"></path><path d="M607 540L712.7 540L668 452Z" fill="#00101c" stroke="#00101c"></path><path d="M293 0L197.3 85L332 122Z" fill="#19435d" stroke="#19435d"></path><path d="M82.7 349L227.3 365L236.3 280Z" fill="#0c2435" stroke="#0c2435"></path><path d="M863.3 73L767.7 65L760.7 145Z" fill="#246688" stroke="#246688"></path><path d="M760.7 145L767.7 65L673 160Z" fill="#277297" stroke="#277297"></path><path d="M87.7 243L236.3 280L209.3 152Z" fill="#297ea6" stroke="#297ea6"></path><path d="M231.3 451L196.3 540L294 540Z" fill="#081a28" stroke="#081a28"></path><path d="M134.7 445L196.3 540L231.3 451Z" fill="#1d4e6b" stroke="#1d4e6b"></path><path d="M872.3 423L751.7 398L736.7 439Z" fill="#15384f" stroke="#15384f"></path><path d="M751.7 398L869.3 375L727.7 261Z" fill="#1d4e6b" stroke="#1d4e6b"></path><path d="M80.7 143L87.7 243L209.3 152Z" fill="#297ea6" stroke="#297ea6"></path><path d="M858.3 0L773.7 0L767.7 65Z" fill="#19435d" stroke="#19435d"></path><path d="M767.7 65L773.7 0L644 0Z" fill="#297ea6" stroke="#297ea6"></path><path d="M869.3 375L891.3 268L727.7 261Z" fill="#205a7a" stroke="#205a7a"></path><path d="M87.7 243L82.7 349L236.3 280Z" fill="#081a28" stroke="#081a28"></path><path d="M862.3 540L872.3 423L736.7 439Z" fill="#277297" stroke="#277297"></path><path d="M869.3 375L960 297L891.3 268Z" fill="#0c2435" stroke="#0c2435"></path><path d="M293 0L177.3 0L197.3 85Z" fill="#19435d" stroke="#19435d"></path><path d="M84.7 107L80.7 143L209.3 152Z" fill="#081a28" stroke="#081a28"></path><path d="M891.3 268L890.3 167L760.7 145Z" fill="#1d4e6b" stroke="#1d4e6b"></path><path d="M84.7 107L209.3 152L197.3 85Z" fill="#15384f" stroke="#15384f"></path><path d="M87.7 243L0 252L82.7 349Z" fill="#205a7a" stroke="#205a7a"></path><path d="M890.3 167L863.3 73L760.7 145Z" fill="#00101c" stroke="#00101c"></path><path d="M108.7 0L84.7 107L197.3 85Z" fill="#246688" stroke="#246688"></path><path d="M712.7 540L862.3 540L736.7 439Z" fill="#081a28" stroke="#081a28"></path><path d="M960 378L960 297L869.3 375Z" fill="#081a28" stroke="#081a28"></path><path d="M0 422L106.7 540L134.7 445Z" fill="#081a28" stroke="#081a28"></path><path d="M134.7 445L106.7 540L196.3 540Z" fill="#00101c" stroke="#00101c"></path><path d="M960 60L858.3 0L863.3 73Z" fill="#15384f" stroke="#15384f"></path><path d="M863.3 73L858.3 0L767.7 65Z" fill="#1d4e6b" stroke="#1d4e6b"></path><path d="M177.3 0L108.7 0L197.3 85Z" fill="#1d4e6b" stroke="#1d4e6b"></path><path d="M891.3 268L960 198L890.3 167Z" fill="#19435d" stroke="#19435d"></path><path d="M890.3 167L960 60L863.3 73Z" fill="#0c2435" stroke="#0c2435"></path><path d="M960 378L869.3 375L872.3 423Z" fill="#0c2435" stroke="#0c2435"></path><path d="M960 297L960 198L891.3 268Z" fill="#205a7a" stroke="#205a7a"></path><path d="M960 488L960 378L872.3 423Z" fill="#297ea6" stroke="#297ea6"></path><path d="M0 214L80.7 143L0 103Z" fill="#246688" stroke="#246688"></path><path d="M0 214L87.7 243L80.7 143Z" fill="#246688" stroke="#246688"></path><path d="M0 214L0 252L87.7 243Z" fill="#1d4e6b" stroke="#1d4e6b"></path><path d="M82.7 349L0 422L134.7 445Z" fill="#081a28" stroke="#081a28"></path><path d="M0 103L80.7 143L84.7 107Z" fill="#112e42" stroke="#112e42"></path><path d="M0 252L0 356L82.7 349Z" fill="#081a28" stroke="#081a28"></path><path d="M0 356L0 422L82.7 349Z" fill="#19435d" stroke="#19435d"></path><path d="M862.3 540L960 488L872.3 423Z" fill="#277297" stroke="#277297"></path><path d="M0 0L0 103L84.7 107Z" fill="#00101c" stroke="#00101c"></path><path d="M960 198L960 60L890.3 167Z" fill="#112e42" stroke="#112e42"></path><path d="M862.3 540L960 540L960 488Z" fill="#19435d" stroke="#19435d"></path><path d="M960 60L960 0L858.3 0Z" fill="#15384f" stroke="#15384f"></path><path d="M0 422L0 540L106.7 540Z" fill="#297ea6" stroke="#297ea6"></path><path d="M108.7 0L0 0L84.7 107Z" fill="#112e42" stroke="#112e42"></path></g></svg>